<svg width="10" height="6" viewBox="0 0 10 6" fill="none" xmlns="http://www.w3.org/2000/svg">
<path d="M5 5.99979C4.73481 5.99973 4.48049 5.89434 4.293 5.70679L0.293 1.70679C0.105529 1.51926 0.000213623 1.26495 0.000213623 0.999786C0.000213623 0.734622 0.105529 0.480314 0.293 0.292786C0.480528 0.105315 0.734836 0 1 0C1.26516 0 1.51947 0.105315 1.707 0.292786L5.707 4.29279C5.84681 4.43264 5.94202 4.6108 5.98058 4.80475C6.01915 4.99871 5.99935 5.19974 5.92368 5.38244C5.84801 5.56514 5.71987 5.7213 5.55546 5.83119C5.39105 5.94107 5.19775 5.99974 5 5.99979Z" fill="#63D391"/>
<path d="M5 5.99979C4.73481 5.99973 4.48049 5.89434 4.293 5.70679C4.10553 5.51926 4.00021 5.26495 4.00021 4.99979C4.00021 4.73462 4.10553 4.48031 4.293 4.29279L8.293 0.292786C8.48053 0.105315 8.73484 0 9 0C9.26516 0 9.51947 0.105315 9.707 0.292786C9.89447 0.480314 9.99979 0.734622 9.99979 0.999786C9.99979 1.26495 9.89447 1.51926 9.707 1.70679L5.707 5.70679C5.51951 5.89434 5.26519 5.99973 5 5.99979Z" fill="#63D391"/>
</svg>
