<svg width="25" height="24" viewBox="0 0 25 24" fill="none" xmlns="http://www.w3.org/2000/svg">
<path d="M12.0551 22C13.1551 22 14.0551 21.1 14.0551 20H10.0551C10.0551 21.1 10.9551 22 12.0551 22ZM18.0551 16V11C18.0551 7.93 16.4251 5.36 13.5551 4.68V4C13.5551 3.17 12.8851 2.5 12.0551 2.5C11.2251 2.5 10.5551 3.17 10.5551 4V4.68C7.69505 5.36 6.05505 7.92 6.05505 11V16L4.05505 18V19H20.0551V18L18.0551 16ZM16.0551 17H8.05505V11C8.05505 8.52 9.56505 6.5 12.0551 6.5C14.5451 6.5 16.0551 8.52 16.0551 11V17Z" fill="#205266"/>
</svg>
