<svg width="130" height="35" viewBox="0 0 130 35" fill="none" xmlns="http://www.w3.org/2000/svg">
<g clip-path="url(#clip0_375_178)">
<path d="M54.9422 34.6199C54.6835 34.6859 54.421 34.7357 54.1562 34.769C53.7968 34.8163 53.4347 34.839 53.0722 34.837C52.4631 34.8871 51.8532 34.75 51.3241 34.444C51.1235 34.2474 50.9712 34.0068 50.8794 33.7413C50.7876 33.4757 50.7588 33.1925 50.7952 32.9139V26.1979C50.8158 25.9565 50.7827 25.7135 50.6983 25.4863C50.6139 25.2591 50.4804 25.0534 50.3072 24.884C49.9304 24.5869 49.4582 24.4376 48.9792 24.464C48.6315 24.4615 48.2867 24.5257 47.9632 24.6529C47.657 24.774 47.3697 24.9384 47.1102 25.141C47.1272 25.232 47.1412 25.322 47.1512 25.412C47.1612 25.502 47.1642 25.593 47.1642 25.683V34.6199C46.9056 34.686 46.6431 34.7358 46.3782 34.769C46.0189 34.8163 45.6566 34.839 45.2941 34.837C44.685 34.8875 44.0751 34.7503 43.5462 34.444C43.3457 34.2472 43.1937 34.0066 43.1021 33.7411C43.0105 33.4756 42.9817 33.1924 43.0181 32.9139V26.1979C43.0385 25.9516 43.0001 25.704 42.9058 25.4755C42.8116 25.247 42.6642 25.0443 42.4761 24.884C42.0939 24.5974 41.6256 24.4493 41.1481 24.464C40.7972 24.4591 40.4485 24.5187 40.1192 24.6399C39.8591 24.736 39.6055 24.8489 39.3602 24.978V34.6199C39.1115 34.6881 38.8582 34.738 38.6022 34.769C38.2429 34.8163 37.8806 34.839 37.5181 34.837C36.905 34.8858 36.2913 34.7489 35.7571 34.444C35.5526 34.2497 35.3969 34.0098 35.3027 33.7439C35.2085 33.478 35.1785 33.1936 35.2151 32.9139V24.545C35.1967 24.1442 35.3015 23.7474 35.5152 23.4079C35.7447 23.0895 36.0291 22.8145 36.3551 22.5959C37.0321 22.1444 37.7782 21.8067 38.5641 21.5959C39.4584 21.3407 40.3842 21.2131 41.3141 21.217C42.044 21.2126 42.7704 21.3174 43.4692 21.5279C44.1411 21.7328 44.77 22.0584 45.3251 22.4889C45.8997 22.1118 46.5188 21.8072 47.1681 21.582C47.9545 21.3225 48.7794 21.1987 49.6072 21.2159C50.2882 21.213 50.9666 21.2994 51.6252 21.473C52.2418 21.6323 52.8186 21.918 53.3191 22.3119C53.823 22.7208 54.2264 23.2398 54.4982 23.829C54.8145 24.5397 54.9671 25.3123 54.9451 26.09L54.9422 34.6199Z" fill="#205266"/>
<path d="M67.0821 27.958L71.7701 32.5079C71.7278 33.1481 71.4862 33.759 71.0791 34.255C70.8743 34.4645 70.6266 34.6274 70.3531 34.7326C70.0795 34.8377 69.7865 34.8825 69.4941 34.864C69.0064 34.874 68.5264 34.7423 68.1121 34.4849C67.6108 34.1368 67.1634 33.717 66.7841 33.239L63.5591 29.4199V34.6199C63.3101 34.6882 63.0564 34.7381 62.8001 34.769C62.4407 34.8163 62.0786 34.839 61.7161 34.837C61.103 34.8857 60.4894 34.7488 59.9551 34.444C59.7506 34.2497 59.5949 34.0099 59.5007 33.744C59.4065 33.4781 59.3765 33.1936 59.4131 32.9139V17.014C59.6131 16.9593 59.8751 16.905 60.1991 16.851C60.5576 16.7943 60.9202 16.7672 61.2831 16.77C61.894 16.7181 62.5056 16.8602 63.0311 17.176C63.2308 17.3762 63.3822 17.6193 63.4737 17.8869C63.5652 18.1545 63.5944 18.4394 63.5591 18.72V26.385L68.4592 21.4009C69.1804 21.364 69.894 21.5638 70.4911 21.97C70.7231 22.1248 70.9135 22.334 71.0458 22.5795C71.1781 22.8249 71.2484 23.0991 71.2502 23.3779C71.2544 23.8548 71.0755 24.3152 70.7502 24.6639C70.2586 25.1845 69.7384 25.6772 69.1921 26.14L67.0821 27.958Z" fill="#205266"/>
<path d="M83.7342 24.2749C83.0773 23.7788 82.2662 23.5309 81.4442 23.575C80.7926 23.5649 80.1436 23.6563 79.5202 23.846C79.0201 24.0003 78.5385 24.2092 78.0842 24.469V34.598C77.9514 34.6469 77.8159 34.6876 77.6782 34.72C77.4817 34.7671 77.2802 34.7899 77.0782 34.7879C76.3009 34.7879 75.9126 34.463 75.9133 33.813V24.568C75.9001 24.2412 75.9798 23.9173 76.1432 23.634C76.3535 23.3386 76.6267 23.0937 76.9432 22.917C77.5309 22.5773 78.1592 22.3132 78.8132 22.131C79.6676 21.8856 80.5534 21.767 81.4422 21.779C82.8265 21.7013 84.1965 22.0923 85.3312 22.889C85.8271 23.3179 86.2144 23.8581 86.4617 24.4653C86.709 25.0725 86.8093 25.7296 86.7542 26.383V34.589C86.617 34.6388 86.4767 34.6796 86.3342 34.711C86.1432 34.7564 85.9475 34.7792 85.7512 34.779C84.9745 34.779 84.5862 34.454 84.5862 33.804V26.492C84.6214 26.0821 84.5629 25.6695 84.4153 25.2854C84.2678 24.9014 84.0348 24.5559 83.7342 24.2749Z" fill="#205266"/>
<path d="M93.7192 29.6679C94.2066 32.0339 95.7603 33.2166 98.3803 33.216C99.0848 33.2262 99.7845 33.0974 100.439 32.8369C100.962 32.6356 101.455 32.3623 101.902 32.0249C102.096 32.1184 102.26 32.2644 102.375 32.4463C102.49 32.6282 102.552 32.8387 102.553 33.054C102.542 33.3329 102.42 33.5958 102.214 33.7849C101.948 34.0473 101.636 34.2586 101.293 34.408C100.859 34.603 100.405 34.7482 99.9382 34.841C99.3897 34.9524 98.831 35.0067 98.2712 35.0029C96.4552 35.1018 94.672 34.4899 93.2992 33.297C92.66 32.6424 92.1666 31.8601 91.8513 31.0012C91.5361 30.1424 91.4062 29.2265 91.4702 28.3139C91.4546 27.3783 91.606 26.4474 91.9172 25.565C92.1884 24.805 92.6128 24.109 93.1642 23.52C93.7002 22.958 94.3519 22.5192 95.0742 22.234C95.8419 21.9308 96.6609 21.779 97.4862 21.7869C98.2548 21.779 99.0179 21.9168 99.7352 22.193C100.4 22.4501 101.004 22.842 101.51 23.344C102.011 23.8479 102.407 24.4465 102.675 25.1049C102.961 25.8146 103.104 26.5739 103.095 27.3389C103.11 27.4921 103.094 27.6466 103.047 27.7932C103 27.9398 102.925 28.0755 102.824 28.192C102.613 28.3769 102.346 28.4862 102.065 28.5029L93.7192 29.6679ZM97.4592 23.547C96.9474 23.5331 96.4385 23.6286 95.9666 23.8271C95.4946 24.0256 95.0703 24.3225 94.7222 24.698C93.9449 25.6142 93.5389 26.7883 93.5842 27.989L101.036 26.96C100.98 26.0475 100.612 25.182 99.9933 24.5089C99.6627 24.1787 99.266 23.9221 98.8294 23.7558C98.3927 23.5895 97.9258 23.5173 97.4592 23.544V23.547Z" fill="#205266"/>
<path d="M107.322 32.698C107.881 31.9393 108.468 31.199 109.083 30.477C109.698 29.755 110.312 29.0146 110.926 28.256C110.167 27.3353 109.463 26.4643 108.812 25.643C108.161 24.8217 107.493 23.9683 106.807 23.083C106.855 22.7713 106.992 22.4798 107.2 22.243C107.296 22.1433 107.412 22.0651 107.541 22.0133C107.669 21.9616 107.807 21.9377 107.945 21.943C108.205 21.9272 108.461 22.0093 108.663 22.173C108.865 22.3597 109.052 22.5634 109.219 22.782C109.686 23.4146 110.169 24.0873 110.669 24.8C111.169 25.5126 111.689 26.2213 112.227 26.9259C112.894 26.0773 113.527 25.2693 114.127 24.5019C114.727 23.7346 115.341 22.8906 115.97 21.97C116.069 21.9513 116.17 21.9423 116.27 21.943C116.589 21.9247 116.904 22.0154 117.164 22.2C117.269 22.2811 117.354 22.386 117.41 22.5062C117.467 22.6264 117.494 22.7583 117.489 22.891C117.49 23.0872 117.448 23.2812 117.367 23.4599C117.26 23.6817 117.128 23.8908 116.974 24.083C116.414 24.7697 115.841 25.4696 115.254 26.183C114.667 26.8963 114.085 27.5963 113.506 28.2829C114.211 29.2043 114.92 30.1117 115.633 31.005C116.347 31.8983 117.055 32.7967 117.76 33.7C117.742 34.0038 117.617 34.2916 117.408 34.513C117.304 34.6138 117.181 34.6924 117.046 34.7439C116.911 34.7955 116.767 34.819 116.622 34.813C116.355 34.8254 116.091 34.7441 115.877 34.583C115.63 34.3686 115.408 34.1278 115.213 33.865C114.726 33.215 114.226 32.5243 113.713 31.793C113.2 31.0616 112.69 30.353 112.182 29.667C111.55 30.4976 110.913 31.3463 110.272 32.213C109.631 33.0797 109.012 33.9373 108.416 34.786H108.037C107.703 34.811 107.371 34.7147 107.102 34.5149C107.003 34.4328 106.923 34.3293 106.869 34.2121C106.815 34.0949 106.788 33.967 106.79 33.838C106.792 33.6842 106.824 33.5322 106.885 33.391C107.004 33.144 107.15 32.9114 107.322 32.698Z" fill="#205266"/>
<path d="M126.399 35C125.311 35.0501 124.235 34.7566 123.323 34.161C122.911 33.8301 122.587 33.4019 122.382 32.9148C122.176 32.4278 122.095 31.8972 122.145 31.3709V18.506C122.282 18.4562 122.423 18.4154 122.565 18.3839C122.765 18.3378 122.97 18.315 123.175 18.3159C123.934 18.3159 124.313 18.6409 124.313 19.2909V22.406H128.757C128.823 22.5225 128.878 22.645 128.92 22.7719C128.975 22.9328 129.003 23.1019 129.001 23.2719C129.001 23.8859 128.73 24.193 128.188 24.193H124.313V31.235C124.283 31.5203 124.323 31.8086 124.43 32.0751C124.536 32.3416 124.705 32.5783 124.923 32.7649C125.435 33.0924 126.038 33.249 126.644 33.2119C126.993 33.2057 127.34 33.1512 127.674 33.05C128.004 32.9617 128.322 32.8345 128.622 32.6709C128.74 32.7918 128.841 32.9284 128.922 33.0769C129.015 33.2518 129.062 33.4478 129.057 33.646C129.046 33.8583 128.974 34.0629 128.85 34.2357C128.725 34.4084 128.555 34.5421 128.357 34.6209C127.745 34.9042 127.073 35.0343 126.399 35Z" fill="#205266"/>
<path fill-rule="evenodd" clip-rule="evenodd" d="M21.8062 0.168945H7.89813C6.05382 0.168945 4.28502 0.901622 2.9809 2.20575C1.67677 3.50988 0.944092 5.27861 0.944092 7.12292V14.077C0.944092 15.9213 1.67677 17.6901 2.9809 18.9942C4.28502 20.2983 6.05382 21.0309 7.89813 21.0309H28.7571V7.12292C28.7571 5.27913 28.0249 3.51083 26.7214 2.20679C25.418 0.902745 23.6499 0.169741 21.8062 0.168945Z" fill="#63D391"/>
<path fill-rule="evenodd" clip-rule="evenodd" d="M20.2592 11.166L20.2771 11.151C20.2841 11.145 20.2892 11.138 20.2962 11.132C20.3195 11.1127 20.3415 11.0921 20.3622 11.07C20.3682 11.063 20.3711 11.055 20.3771 11.049C20.3831 11.043 20.3852 11.037 20.3892 11.031C20.4134 10.9996 20.4347 10.9661 20.4532 10.931C20.4532 10.923 20.4601 10.914 20.4641 10.905C20.4798 10.8727 20.4932 10.8393 20.5042 10.805C20.5042 10.791 20.5092 10.777 20.5132 10.764C20.5207 10.7337 20.5264 10.703 20.5302 10.672C20.5302 10.649 20.5302 10.627 20.5302 10.604C20.5302 10.581 20.5302 10.559 20.5302 10.537C20.5263 10.506 20.5207 10.4753 20.5132 10.445C20.5132 10.431 20.5132 10.417 20.5042 10.404C20.4933 10.3698 20.4799 10.3363 20.4641 10.304C20.4641 10.295 20.4572 10.287 20.4532 10.278C20.4348 10.2429 20.4134 10.2094 20.3892 10.178C20.3892 10.172 20.3811 10.165 20.3761 10.159C20.3711 10.153 20.3672 10.145 20.3622 10.138C20.3275 10.0973 20.2882 10.0608 20.2452 10.029L16.9582 7.246C16.8856 7.18454 16.8016 7.13799 16.7111 7.10898C16.6205 7.07996 16.5252 7.06909 16.4305 7.07693C16.3357 7.08478 16.2434 7.11118 16.1589 7.15469C16.0743 7.19821 15.9991 7.25798 15.9377 7.33054C15.8762 7.40309 15.8296 7.48699 15.8006 7.57755C15.7716 7.6681 15.7607 7.76348 15.7686 7.85825C15.7764 7.95301 15.8028 8.04531 15.8464 8.12985C15.8899 8.2144 15.9496 8.28958 16.0221 8.35104L18.6872 10.608L16.0221 12.865C15.8756 12.9891 15.7844 13.1664 15.7686 13.3578C15.7527 13.5491 15.8135 13.739 15.9377 13.8855C16.0618 14.0321 16.2391 14.1233 16.4305 14.1391C16.6218 14.155 16.8116 14.0941 16.9582 13.97L20.2392 11.192L20.2592 11.166Z" fill="white"/>
<path fill-rule="evenodd" clip-rule="evenodd" d="M14.2502 11.166L14.2681 11.151C14.2751 11.145 14.2801 11.138 14.2871 11.132C14.3104 11.1128 14.3324 11.0921 14.3531 11.07C14.3591 11.063 14.3621 11.055 14.3681 11.049L14.3802 11.031C14.4043 10.9995 14.4256 10.9661 14.4441 10.9311C14.4441 10.9231 14.4511 10.9141 14.4551 10.9051C14.471 10.8728 14.4844 10.8393 14.4952 10.805C14.4952 10.791 14.5001 10.7771 14.5041 10.7641C14.5112 10.7337 14.5165 10.703 14.5201 10.672C14.5201 10.649 14.5201 10.627 14.5201 10.604C14.5201 10.581 14.5201 10.5591 14.5201 10.5371C14.5165 10.5061 14.5112 10.4754 14.5041 10.445C14.5041 10.431 14.5042 10.4171 14.4952 10.4041C14.4845 10.3697 14.4711 10.3363 14.4551 10.304C14.4551 10.295 14.4481 10.286 14.4441 10.278C14.4257 10.243 14.4043 10.2095 14.3802 10.1781C14.3802 10.1721 14.3721 10.165 14.3671 10.159C14.3621 10.153 14.3581 10.145 14.3531 10.138C14.3273 10.1088 14.2993 10.0817 14.2691 10.057C14.2581 10.048 14.2481 10.0381 14.2371 10.0301L10.9501 7.24606C10.8776 7.1846 10.7936 7.13805 10.703 7.10903C10.6125 7.08002 10.5172 7.06908 10.4224 7.07693C10.3276 7.08477 10.2353 7.11123 10.1508 7.15475C10.0662 7.19826 9.99106 7.25797 9.9296 7.33053C9.86814 7.40308 9.82153 7.48705 9.79252 7.5776C9.7635 7.66815 9.75269 7.76354 9.76054 7.8583C9.76838 7.95306 9.79478 8.04536 9.83829 8.12991C9.88181 8.21445 9.94152 8.28958 10.0141 8.35104L12.6791 10.6081L10.0141 12.8651C9.94152 12.9265 9.88181 13.0017 9.83829 13.0862C9.79478 13.1708 9.76838 13.263 9.76054 13.3578C9.75269 13.4526 9.7635 13.548 9.79252 13.6385C9.82153 13.7291 9.86814 13.813 9.9296 13.8855C9.99106 13.9581 10.0662 14.0179 10.1508 14.0614C10.2353 14.1049 10.3276 14.1313 10.4224 14.1391C10.5172 14.147 10.6125 14.1361 10.703 14.1071C10.7936 14.0781 10.8776 14.0315 10.9501 13.9701L14.2301 11.192L14.2502 11.166Z" fill="white"/>
</g>
<defs>
<clipPath id="clip0_375_178">
<rect width="128.11" height="34.831" fill="white" transform="translate(0.945068 0.168945)"/>
</clipPath>
</defs>
</svg>
