<svg width="18" height="19" viewBox="0 0 18 19" fill="none" xmlns="http://www.w3.org/2000/svg">
<path d="M7.375 15.1249C7.62364 15.1249 7.8621 15.0261 8.03791 14.8503C8.21373 14.6745 8.3125 14.436 8.3125 14.1874V8.56238C8.3125 8.31374 8.21373 8.07528 8.03791 7.89947C7.8621 7.72365 7.62364 7.62488 7.375 7.62488C7.12636 7.62488 6.8879 7.72365 6.71209 7.89947C6.53627 8.07528 6.4375 8.31374 6.4375 8.56238V14.1874C6.4375 14.436 6.53627 14.6745 6.71209 14.8503C6.8879 15.0261 7.12636 15.1249 7.375 15.1249ZM16.75 3.87488H13V2.93738C13 2.19146 12.7037 1.47609 12.1762 0.94864C11.6488 0.421194 10.9334 0.124878 10.1875 0.124878H8.3125C7.56658 0.124878 6.85121 0.421194 6.32376 0.94864C5.79632 1.47609 5.5 2.19146 5.5 2.93738V3.87488H1.75C1.50136 3.87488 1.2629 3.97365 1.08709 4.14947C0.911272 4.32528 0.8125 4.56374 0.8125 4.81238C0.8125 5.06102 0.911272 5.29948 1.08709 5.47529C1.2629 5.65111 1.50136 5.74988 1.75 5.74988H2.6875V16.0624C2.6875 16.8083 2.98382 17.5237 3.51126 18.0511C4.03871 18.5786 4.75408 18.8749 5.5 18.8749H13C13.7459 18.8749 14.4613 18.5786 14.9887 18.0511C15.5162 17.5237 15.8125 16.8083 15.8125 16.0624V5.74988H16.75C16.9986 5.74988 17.2371 5.65111 17.4129 5.47529C17.5887 5.29948 17.6875 5.06102 17.6875 4.81238C17.6875 4.56374 17.5887 4.32528 17.4129 4.14947C17.2371 3.97365 16.9986 3.87488 16.75 3.87488ZM7.375 2.93738C7.375 2.68874 7.47377 2.45028 7.64959 2.27447C7.8254 2.09865 8.06386 1.99988 8.3125 1.99988H10.1875C10.4361 1.99988 10.6746 2.09865 10.8504 2.27447C11.0262 2.45028 11.125 2.68874 11.125 2.93738V3.87488H7.375V2.93738ZM13.9375 16.0624C13.9375 16.311 13.8387 16.5495 13.6629 16.7253C13.4871 16.9011 13.2486 16.9999 13 16.9999H5.5C5.25136 16.9999 5.0129 16.9011 4.83709 16.7253C4.66127 16.5495 4.5625 16.311 4.5625 16.0624V5.74988H13.9375V16.0624ZM11.125 15.1249C11.3736 15.1249 11.6121 15.0261 11.7879 14.8503C11.9637 14.6745 12.0625 14.436 12.0625 14.1874V8.56238C12.0625 8.31374 11.9637 8.07528 11.7879 7.89947C11.6121 7.72365 11.3736 7.62488 11.125 7.62488C10.8764 7.62488 10.6379 7.72365 10.4621 7.89947C10.2863 8.07528 10.1875 8.31374 10.1875 8.56238V14.1874C10.1875 14.436 10.2863 14.6745 10.4621 14.8503C10.6379 15.0261 10.8764 15.1249 11.125 15.1249Z" fill="#F92828"/>
</svg>
