<svg width="25" height="24" viewBox="0 0 25 24" fill="none" xmlns="http://www.w3.org/2000/svg">
<path d="M12.0551 6C13.1551 6 14.0551 6.9 14.0551 8C14.0551 9.1 13.1551 10 12.0551 10C10.9551 10 10.0551 9.1 10.0551 8C10.0551 6.9 10.9551 6 12.0551 6ZM12.0551 15C14.7551 15 17.8551 16.29 18.0551 17V18H6.05505V17.01C6.25505 16.29 9.35505 15 12.0551 15ZM12.0551 4C9.84505 4 8.05505 5.79 8.05505 8C8.05505 10.21 9.84505 12 12.0551 12C14.2651 12 16.0551 10.21 16.0551 8C16.0551 5.79 14.2651 4 12.0551 4ZM12.0551 13C9.38505 13 4.05505 14.34 4.05505 17V20H20.0551V17C20.0551 14.34 14.7251 13 12.0551 13Z" fill="#205266"/>
</svg>
