<svg width="11" height="11" viewBox="0 0 11 11" fill="none" xmlns="http://www.w3.org/2000/svg">
<path d="M6.44 5.5L10.64 1.30667C10.7655 1.18113 10.8361 1.01087 10.8361 0.833335C10.8361 0.6558 10.7655 0.485537 10.64 0.360002C10.5145 0.234466 10.3442 0.16394 10.1667 0.16394C9.98913 0.16394 9.81887 0.234466 9.69334 0.360002L5.5 4.56L1.30667 0.360002C1.18113 0.234466 1.01087 0.163941 0.833336 0.163941C0.655801 0.163941 0.485538 0.234466 0.360003 0.360002C0.234467 0.485537 0.163942 0.6558 0.163942 0.833335C0.163942 1.01087 0.234467 1.18113 0.360003 1.30667L4.56 5.5L0.360003 9.69334C0.297517 9.75531 0.247921 9.82904 0.214075 9.91028C0.180229 9.99152 0.162804 10.0787 0.162804 10.1667C0.162804 10.2547 0.180229 10.3418 0.214075 10.4231C0.247921 10.5043 0.297517 10.578 0.360003 10.64C0.421978 10.7025 0.495712 10.7521 0.576951 10.7859C0.658191 10.8198 0.745328 10.8372 0.833336 10.8372C0.921344 10.8372 1.00848 10.8198 1.08972 10.7859C1.17096 10.7521 1.24469 10.7025 1.30667 10.64L5.5 6.44L9.69334 10.64C9.75531 10.7025 9.82905 10.7521 9.91028 10.7859C9.99152 10.8198 10.0787 10.8372 10.1667 10.8372C10.2547 10.8372 10.3418 10.8198 10.4231 10.7859C10.5043 10.7521 10.578 10.7025 10.64 10.64C10.7025 10.578 10.7521 10.5043 10.7859 10.4231C10.8198 10.3418 10.8372 10.2547 10.8372 10.1667C10.8372 10.0787 10.8198 9.99152 10.7859 9.91028C10.7521 9.82904 10.7025 9.75531 10.64 9.69334L6.44 5.5Z" fill="#71839B"/>
</svg>
